mtllib model_19.mtl
o model_19
v -97.49946594238281 -58.95199966430664 1096.2047119140625 
v -104.58517456054688 -56.606143951416016 1098.0533447265625 
v -44.62921905517578 -58.95199966430664 1081.4156494140625 
v -107.49212646484375 -50.879520416259766 1098.9161376953125 
v -107.31044006347656 37.503841400146484 1098.9161376953125 
v -105.13021850585938 44.955379486083984 1098.2999267578125 
v -99.67967987060547 47.99117660522461 1096.69775390625 
v -43.9024772644043 47.99117660522461 1081.2923583984375 
v -37.36183547973633 45.43832015991211 1079.4437255859375 
v -34.8182487487793 39.297725677490234 1078.704345703125 
v -34.63656234741211 -50.879520416259766 1078.704345703125 
v -37.54350662231445 -56.606143951416016 1079.4437255859375 
v -139.1067352294922 65.30908203125 856.3799438476562 
v -139.4701385498047 62.48025131225586 850.7109375 
v -139.1061553955078 65.30908203125 954.6022338867188 
v -139.46949768066406 62.411251068115234 961.1339721679688 
v -140.1962127685547 56.891597747802734 964.5846557617188 
v -155.09437561035156 -66.33453369140625 964.5847778320312 
v -155.63946533203125 -71.85418701171875 961.134033203125 
v -156.00286865234375 -74.75198364257812 954.6023559570312 
v -156.00320434570312 -74.75198364257812 896.6795043945312 
v -155.63987731933594 -71.92318725585938 889.2850952148438 
v -155.0948486328125 -66.54153442382812 884.3555297851562 
v -140.01519775390625 57.09859848022461 848.7390747070312 
v -360.76226806640625 -73.85504150390625 884.1102294921875 
v -264.46923828125 -73.85504150390625 884.1096801757812 
v -367.66632080078125 -71.0262451171875 883.370849609375 
v -371.8450622558594 -65.64459228515625 882.0152587890625 
v -388.0152282714844 58.27151107788086 848.86376953125 
v -385.2899475097656 63.65316390991211 847.3848876953125 
v -379.1126708984375 66.48199462890625 846.6453857421875 
v -264.4694519042969 66.48199462890625 846.6447143554688 
v -149.82620239257812 66.48199462890625 846.64404296875 
v -143.64891052246094 63.65316390991211 847.3834228515625 
v -140.9236297607422 58.27151107788086 848.8623046875 
v -157.09339904785156 -65.64459228515625 882.0139770507812 
v -161.27215576171875 -71.0262451171875 883.36962890625 
v -168.17617797851562 -73.85504150390625 884.109130859375 
v -406.3641052246094 -58.95199966430664 1074.7628173828125 
v -406.00103759765625 -58.95199966430664 1019.7977294921875 
v -406.5457458496094 -56.606143951416016 1082.033935546875 
v -406.54571533203125 -50.879520416259766 1085.114990234375 
v -406.54571533203125 37.503841400146484 1084.99169921875 
v -406.5457458496094 44.955379486083984 1082.650146484375 
v -406.5457763671875 47.99117660522461 1076.9810791015625 
v -406.00103759765625 47.99117660522461 1019.0582885742188 
v -405.81939697265625 45.43832015991211 1012.4033203125 
v -405.8194274902344 39.297725677490234 1009.6920776367188 
v -405.8194274902344 -50.879520416259766 1009.56884765625 
v -405.81939697265625 -56.606143951416016 1012.526611328125 
v -388.92364501953125 57.09859848022461 848.7405395507812 
v -389.46868896484375 62.48025131225586 850.71240234375 
v -374.0252685546875 -66.54153442382812 884.3568115234375 
v -373.29852294921875 -71.92318725585938 889.286376953125 
v -372.9350891113281 -74.75198364257812 896.6807861328125 
v -372.93475341796875 -74.75198364257812 954.6035766601562 
v -373.298095703125 -71.85418701171875 961.1353149414062 
v -374.0248107910156 -66.33453369140625 964.5860595703125 
v -388.9229736328125 56.891597747802734 964.5861206054688 
v -389.4680480957031 62.411251068115234 961.1354370117188 
v -389.8314514160156 65.30908203125 954.6036987304688 
v -389.83203125 65.30908203125 856.3814086914062 
vn -0.2718140184879303 1.5114187242542778e-16 -0.9623497724533081 
vn -0.26760655641555786 1.507709249340896e-16 -0.9635282754898071 
vn -0.26760655641555786 1.507709249340896e-16 -0.9635282754898071 
vn -0.26760655641555786 1.507709249340896e-16 -0.9635282754898071 
vn -0.26760655641555786 1.507709249340896e-16 -0.9635282754898071 
vn -0.26760655641555786 1.507709249340896e-16 -0.9635282754898071 
vn -0.26760655641555786 1.507709249340896e-16 -0.9635282754898071 
vn -0.26760655641555786 1.507709249340896e-16 -0.9635282754898071 
vn -0.2718140184879303 1.5114187242542778e-16 -0.9623497724533081 
vn -0.26760655641555786 1.507709249340896e-16 -0.9635282754898071 
vn -0.26760655641555786 1.507709249340896e-16 -0.9635282754898071 
vn -0.26760655641555786 1.507709249340896e-16 -0.9635282754898071 
vn 0.9927064776420593 -0.12053639441728592 -0.0021905102767050266 
vn 0.9927064776420593 -0.12053639441728592 0.0021788780577480793 
vn 0.9927064776420593 -0.12053639441728592 -0.0021905102767050266 
vn 0.9927064776420593 -0.12053639441728592 0.0021788780577480793 
vn 0.9927064776420593 -0.12053639441728592 -0.0021905102767050266 
vn 0.9927064776420593 -0.12053639441728592 -0.0021905102767050266 
vn 0.9927064776420593 -0.12053639441728592 0.0021788780577480793 
vn 0.9927064776420593 -0.12053639441728592 -0.0021905102767050266 
vn 0.9927064776420593 -0.12053639441728592 -0.0021905102767050266 
vn 0.9927064776420593 -0.12053639441728592 -0.0021905102767050266 
vn 0.9927064776420593 -0.12053639441728592 0.0021788780577480793 
vn 0.9927064776420593 -0.12053639441728592 0.0021788780577480793 
vn -0.0018816996598616242 -0.2591639459133148 -0.9658315181732178 
vn 0.005622070748358965 -0.25910961627960205 -0.9658315777778625 
vn -0.0018816996598616242 -0.2591639459133148 -0.9658315181732178 
vn -0.000005652069830830442 -0.26338833570480347 -0.9646899104118347 
vn -0.0018816996598616242 -0.2591639459133148 -0.9658315181732178 
vn -0.0018816996598616242 -0.2591639459133148 -0.9658315181732178 
vn -0.0018816996598616242 -0.2591639459133148 -0.9658315181732178 
vn -0.000005652069830830442 -0.26338833570480347 -0.9646899104118347 
vn -0.000005652069830830442 -0.26338833570480347 -0.9646899104118347 
vn -0.000005652069830830442 -0.26338833570480347 -0.9646899104118347 
vn -0.0018816996598616242 -0.2591639459133148 -0.9658315181732178 
vn -0.000005652069830830442 -0.26338833570480347 -0.9646899104118347 
vn -0.000005652069830830442 -0.26338833570480347 -0.9646899104118347 
vn -0.0018816996598616242 -0.2591639459133148 -0.9658315181732178 
vn -0.9999786019325256 1.2326429759561465e-16 -0.006548181641846895 
vn -0.9999403953552246 1.2379469903927345e-16 -0.010917402803897858 
vn -0.9999786019325256 1.2326429759561465e-16 -0.006548181641846895 
vn -0.9999403953552246 1.2379469903927345e-16 -0.010917402803897858 
vn -0.9999403953552246 1.2379469903927345e-16 -0.010917402803897858 
vn -0.9999786019325256 1.2326429759561465e-16 -0.006548181641846895 
vn -0.9999786019325256 1.2326429759561465e-16 -0.006548181641846895 
vn -0.9999403953552246 1.2379469903927345e-16 -0.010917402803897858 
vn -0.9999403953552246 1.2379469903927345e-16 -0.010917402803897858 
vn -0.9999403953552246 1.2379469903927345e-16 -0.010917402803897858 
vn -0.9999403953552246 1.2379469903927345e-16 -0.010917402803897858 
vn -0.9999403953552246 1.2379469903927345e-16 -0.010917402803897858 
vn -0.9927064776420593 -0.12053639441728592 -0.0021788780577480793 
vn -0.9927064776420593 -0.12053639441728592 -0.0021788780577480793 
vn -0.9927064776420593 -0.12053639441728592 -0.0021788780577480793 
vn -0.9927064776420593 -0.12053639441728592 -0.0021788780577480793 
vn -0.9927064776420593 -0.12053639441728592 -0.0021788780577480793 
vn -0.9927064776420593 -0.12053639441728592 0.0021905102767050266 
vn -0.9927064776420593 -0.12053639441728592 -0.0021788780577480793 
vn -0.9927064776420593 -0.12053639441728592 -0.0021788780577480793 
vn -0.9927064776420593 -0.12053639441728592 -0.0021788780577480793 
vn -0.9927064776420593 -0.12053639441728592 -0.0021788780577480793 
vn -0.9927064776420593 -0.12053639441728592 -0.0021788780577480793 
vn -0.9927064776420593 -0.12053639441728592 -0.0021788780577480793 
vt 0.806270182132721 0.5410599112510681 
vt 0.834062933921814 0.5500956773757935 
vt 0.5964837074279785 0.5412915945053101 
vt 0.8456432223320007 0.5719900131225586 
vt 0.8455213308334351 0.9094406962394714 
vt 0.8366227746009827 0.9378222227096558 
vt 0.8150468468666077 0.9496381878852844 
vt 0.5938019752502441 0.9496381878852844 
vt 0.5684471726417542 0.9399073719978333 
vt 0.5578420162200928 0.9166229367256165 
vt 0.5571106672286987 0.5722216963768005 
vt 0.5685690641403198 0.5503273606300354 
vt 0.9701010584831238 0.5395539999008179 
vt 0.9920427203178406 0.5286647081375122 
vt 0.5951428413391113 0.5395539999008179 
vt 0.5701537132263184 0.5283172130584717 
vt 0.5571106672286987 0.5071179270744324 
vt 0.5571106672286987 0.033204223960638046 
vt 0.5701537132263184 0.012004955671727657 
vt 0.5951428413391113 0.0007681850111111999 
vt 0.8162658214569092 0.0007681850111111999 
vt 0.8443023562431335 0.011657427065074444 
vt 0.8633184432983398 0.03227747976779938 
vt 0.999234676361084 0.5080446600914001 
vt 0.5555259585380554 0.8401665687561035 
vt 0.5555259585380554 0.47236505150794983 
vt 0.5443113446235657 0.8665787577629089 
vt 0.522979199886322 0.8823333978652954 
vt 0.03331495076417923 0.9439619183540344 
vt 0.011982801370322704 0.9335359930992126 
vt 0.0007681850111111999 0.9099040627479553 
vt 0.0007681850111111999 0.47236505150794983 
vt 0.0007681850111111999 0.03482602536678314 
vt 0.011982801370322704 0.01119405496865511 
vt 0.03331495076417923 0.0007681850111111999 
vt 0.522979199886322 0.062396660447120667 
vt 0.5443113446235657 0.07815130800008774 
vt 0.5555259585380554 0.10456351190805435 
vt 0.806270182132721 0.5410599112510681 
vt 0.5964837074279785 0.5412915945053101 
vt 0.834062933921814 0.5500956773757935 
vt 0.8456432223320007 0.5719900131225586 
vt 0.8455213308334351 0.9094406962394714 
vt 0.8366227746009827 0.9378222227096558 
vt 0.8150468468666077 0.9496381878852844 
vt 0.5938019752502441 0.9496381878852844 
vt 0.5684471726417542 0.9399073719978333 
vt 0.5578420162200928 0.9166229367256165 
vt 0.5571106672286987 0.5722216963768005 
vt 0.5685690641403198 0.5503273606300354 
vt 0.999234676361084 0.5080446600914001 
vt 0.9920427203178406 0.5286647081375122 
vt 0.8633184432983398 0.03227747976779938 
vt 0.8443023562431335 0.011657427065074444 
vt 0.8162658214569092 0.0007681850111111999 
vt 0.5951428413391113 0.0007681850111111999 
vt 0.5701537132263184 0.012004955671727657 
vt 0.5571106672286987 0.033204223960638046 
vt 0.5571106672286987 0.5071179270744324 
vt 0.5701537132263184 0.5283172130584717 
vt 0.5951428413391113 0.5395539999008179 
vt 0.9701010584831238 0.5395539999008179 
s on 
f 1/1/1 2/2/2 3/3/3 
f 2/2/2 4/4/4 3/3/3 
f 3/3/3 4/4/4 3/3/3 
f 4/4/4 5/5/5 3/3/3 
f 3/3/3 5/5/5 3/3/3 
f 5/5/5 6/6/6 3/3/3 
f 3/3/3 6/6/6 3/3/3 
f 6/6/6 7/7/7 3/3/3 
f 3/3/3 7/7/7 3/3/3 
f 7/7/7 8/8/8 3/3/3 
f 3/3/3 8/8/8 3/3/3 
f 8/8/8 9/9/9 3/3/3 
f 3/3/3 9/9/9 3/3/3 
f 9/9/9 10/10/10 3/3/3 
f 3/3/3 10/10/10 3/3/3 
f 10/10/10 11/11/11 3/3/3 
f 3/3/3 11/11/11 12/12/12 
f 11/11/11 12/12/12 12/12/12 
f 12/12/12 12/12/12 13/13/13 
f 12/12/12 13/13/13 13/13/13 
f 13/13/13 13/13/13 14/14/14 
f 13/13/13 15/15/15 14/14/14 
f 14/14/14 15/15/15 14/14/14 
f 15/15/15 16/16/16 14/14/14 
f 14/14/14 16/16/16 14/14/14 
f 16/16/16 17/17/17 14/14/14 
f 14/14/14 17/17/17 14/14/14 
f 17/17/17 18/18/18 14/14/14 
f 14/14/14 18/18/18 14/14/14 
f 18/18/18 19/19/19 14/14/14 
f 14/14/14 19/19/19 14/14/14 
f 19/19/19 20/20/20 14/14/14 
f 14/14/14 20/20/20 14/14/14 
f 20/20/20 21/21/21 14/14/14 
f 14/14/14 21/21/21 14/14/14 
f 21/21/21 22/22/22 14/14/14 
f 14/14/14 22/22/22 14/14/14 
f 22/22/22 23/23/23 14/14/14 
f 14/14/14 23/23/23 24/24/24 
f 23/23/23 24/24/24 24/24/24 
f 24/24/24 24/24/24 25/25/25 
f 24/24/24 25/25/25 25/25/25 
f 25/25/25 25/25/25 26/26/26 
f 25/25/25 27/27/27 26/26/26 
f 26/26/26 27/27/27 26/26/26 
f 27/27/27 28/28/28 26/26/26 
f 26/26/26 28/28/28 26/26/26 
f 28/28/28 29/29/29 26/26/26 
f 26/26/26 29/29/29 26/26/26 
f 29/29/29 30/30/30 26/26/26 
f 26/26/26 30/30/30 26/26/26 
f 30/30/30 31/31/31 26/26/26 
f 26/26/26 31/31/31 26/26/26 
f 31/31/31 32/32/32 26/26/26 
f 26/26/26 32/32/32 26/26/26 
f 32/32/32 33/33/33 26/26/26 
f 26/26/26 33/33/33 26/26/26 
f 33/33/33 34/34/34 26/26/26 
f 26/26/26 34/34/34 26/26/26 
f 34/34/34 35/35/35 26/26/26 
f 26/26/26 35/35/35 26/26/26 
f 35/35/35 36/36/36 26/26/26 
f 26/26/26 36/36/36 26/26/26 
f 36/36/36 37/37/37 26/26/26 
f 26/26/26 37/37/37 38/38/38 
f 37/37/37 38/38/38 38/38/38 
f 38/38/38 38/38/38 39/39/39 
f 38/38/38 39/39/39 39/39/39 
f 39/39/39 39/39/39 40/40/40 
f 39/39/39 41/41/41 40/40/40 
f 40/40/40 41/41/41 40/40/40 
f 41/41/41 42/42/42 40/40/40 
f 40/40/40 42/42/42 40/40/40 
f 42/42/42 43/43/43 40/40/40 
f 40/40/40 43/43/43 40/40/40 
f 43/43/43 44/44/44 40/40/40 
f 40/40/40 44/44/44 40/40/40 
f 44/44/44 45/45/45 40/40/40 
f 40/40/40 45/45/45 40/40/40 
f 45/45/45 46/46/46 40/40/40 
f 40/40/40 46/46/46 40/40/40 
f 46/46/46 47/47/47 40/40/40 
f 40/40/40 47/47/47 40/40/40 
f 47/47/47 48/48/48 40/40/40 
f 40/40/40 48/48/48 40/40/40 
f 48/48/48 49/49/49 40/40/40 
f 40/40/40 49/49/49 50/50/50 
f 49/49/49 50/50/50 50/50/50 
f 50/50/50 50/50/50 51/51/51 
f 50/50/50 51/51/51 51/51/51 
f 51/51/51 51/51/51 52/52/52 
f 51/51/51 53/53/53 52/52/52 
f 52/52/52 53/53/53 52/52/52 
f 53/53/53 54/54/54 52/52/52 
f 52/52/52 54/54/54 52/52/52 
f 54/54/54 55/55/55 52/52/52 
f 52/52/52 55/55/55 52/52/52 
f 55/55/55 56/56/56 52/52/52 
f 52/52/52 56/56/56 52/52/52 
f 56/56/56 57/57/57 52/52/52 
f 52/52/52 57/57/57 52/52/52 
f 57/57/57 58/58/58 52/52/52 
f 52/52/52 58/58/58 52/52/52 
f 58/58/58 59/59/59 52/52/52 
f 52/52/52 59/59/59 52/52/52 
f 59/59/59 60/60/60 52/52/52 
f 52/52/52 60/60/60 52/52/52 
f 60/60/60 61/61/61 52/52/52 
f 52/52/52 61/61/61 62/62/62 

